HIERARCHY
ROOT Bip001_Pelvis
{
  OFFSET 7.937 94.8971 -8.5489
  CHANNELS 6 Xposition Yposition Zposition Zrotation Xrotation Yrotation
  JOINT Bip001_Spine
  {
    OFFSET 1.44608e-005 10.4157 -0.0118244
    CHANNELS 3 Zrotation Xrotation Yrotation
    JOINT Bip001_L_Thigh
    {
      OFFSET 11.2582 -10.4157 0.0118432
      CHANNELS 3 Zrotation Xrotation Yrotation
      JOINT Bip001_L_Calf
      {
        OFFSET -0.720717 -44.8687 0.366937
        CHANNELS 3 Zrotation Xrotation Yrotation
        JOINT Bip001_L_Foot
        {
          OFFSET -0.664439 -41.3745 -3.62995
          CHANNELS 3 Zrotation Xrotation Yrotation
          JOINT Bip001_L_Toe0
          {
            OFFSET 0.0541047 -10.4146 13.4033
            CHANNELS 3 Zrotation Xrotation Yrotation
            End Site
            {
              OFFSET -1.04503e-005 0 7.70137
            }
          }
        }
      }
    }
    JOINT Bip001_R_Thigh
    {
      OFFSET -11.2582 -10.4156 0.0118122
      CHANNELS 3 Zrotation Xrotation Yrotation
      JOINT Bip001_R_Calf
      {
        OFFSET 0.72059 -44.8687 0.36676
        CHANNELS 3 Zrotation Xrotation Yrotation
        JOINT Bip001_R_Foot
        {
          OFFSET 0.664321 -41.3745 -3.62979
          CHANNELS 3 Zrotation Xrotation Yrotation
          JOINT Bip001_R_Toe0
          {
            OFFSET -0.05417 -10.4146 13.4033
            CHANNELS 3 Zrotation Xrotation Yrotation
            End Site
            {
              OFFSET -1.04873e-005 0 7.70137
            }
          }
        }
      }
    }
    JOINT Bip001_Spine1
    {
      OFFSET 1.90638e-005 14.8539 1.10727
      CHANNELS 3 Zrotation Xrotation Yrotation
      JOINT Bip001_Spine2
      {
        OFFSET 2.28934e-005 14.7848 -1.7233
        CHANNELS 3 Zrotation Xrotation Yrotation
        JOINT Bip001_Neck
        {
          OFFSET 2.24514e-005 15.6905 -0.498826
          CHANNELS 3 Zrotation Xrotation Yrotation
          JOINT Bip001_L_Clavicle
          {
            OFFSET 6.17691 -0.000591152 0.00852867
            CHANNELS 3 Zrotation Xrotation Yrotation
            JOINT Bip001_L_UpperArm
            {
              OFFSET 11.773 -0.0611878 0.00197697
              CHANNELS 3 Zrotation Xrotation Yrotation
              JOINT Bip001_L_Forearm
              {
                OFFSET 26.4515 0.0817568 -2.19579
                CHANNELS 3 Zrotation Xrotation Yrotation
                JOINT Bip001_L_Hand
                {
                  OFFSET 32.8677 0.156744 1.67112
                  CHANNELS 3 Zrotation Xrotation Yrotation
                  JOINT Bip001_L_Finger0
                  {
                    OFFSET 6.16268 -2.25226 6.01674
                    CHANNELS 3 Zrotation Xrotation Yrotation
                    End Site
                    {
                      OFFSET 4.30499 -1.46662 0.618148
                    }
                  }
                  JOINT Bip001_L_Finger1
                  {
                    OFFSET 11.2957 -0.718374 -0.201963
                    CHANNELS 3 Zrotation Xrotation Yrotation
                    End Site
                    {
                      OFFSET 6.31952 -0.405163 -0.0802303
                    }
                  }
                }
              }
            }
          }
          JOINT Bip001_R_Clavicle
          {
            OFFSET -6.17691 -0.000574027 0.00851165
            CHANNELS 3 Zrotation Xrotation Yrotation
            JOINT Bip001_R_UpperArm
            {
              OFFSET -11.773 -0.0611516 0.00194365
              CHANNELS 3 Zrotation Xrotation Yrotation
              JOINT Bip001_R_Forearm
              {
                OFFSET -26.4514 0.0822334 -2.19736
                CHANNELS 3 Zrotation Xrotation Yrotation
                JOINT Bip001_R_Hand
                {
                  OFFSET -32.8677 0.156817 1.67144
                  CHANNELS 3 Zrotation Xrotation Yrotation
                  JOINT Bip001_R_Finger0
                  {
                    OFFSET -6.1627 -2.25224 6.0167
                    CHANNELS 3 Zrotation Xrotation Yrotation
                    End Site
                    {
                      OFFSET -4.30499 -1.46662 0.618134
                    }
                  }
                  JOINT Bip001_R_Finger1
                  {
                    OFFSET -11.2958 -0.718344 -0.201994
                    CHANNELS 3 Zrotation Xrotation Yrotation
                    End Site
                    {
                      OFFSET -6.31952 -0.405146 -0.0802475
                    }
                  }
                }
              }
            }
          }
          JOINT Bip001_Head
          {
            OFFSET 1.11782e-005 11.4912 2.09908
            CHANNELS 3 Zrotation Xrotation Yrotation
            End Site
            {
              OFFSET 2.95144e-005 21.2823 -2.83069e-005
            }
          }
        }
      }
    }
  }
}
MOTION
Frames:	16
Frame Time:	0.04
6.76957 95.578 -7.55905 -0.590321 -2.58847 2.14317 0.0400611 0.97124 0.227415 6.80794 -5.90788 7.74266 -1.45053 14.6373 -1.75542 -3.33303 -6.25802 0.308947 0.586682 -9.82613 0.379723 -6.74569 -3.10564 -0.761897 0.340226 13.6125 1.8017 0.583261 -8.07933 -10.0432 -0.964087 -11.4929 0.463684 -0.0850221 1.94385 0.451442 -0.0953453 1.94386 0.450965 -3.6181 -2.87824 -1.63994 -27.0108 8.51776 -11.4811 -51.7939 40.4916 8.90995 13.3513 2.82424 -25.4543 -5.11083 -0.468029 0.29536 1.59028e-015 -3.18055e-015 -1.59028e-015 -1.59028e-015 -3.18056e-015 7.95139e-016 35.0187 11.0104 16.1822 59.3061 36.4819 -24.9562 4.19582 -28.4946 40.1563 10.7529 -1.24103 -24.2786 2.38542e-015 6.36111e-015 -1.59028e-015 7.95139e-016 6.36111e-015 1.59028e-015 0.528038 0.110646 -2.69653 
6.6951 95.5794 -7.5216 -0.626964 -2.65101 1.87157 0.0521233 0.971246 0.128713 6.87169 -5.73373 8.01063 -1.35591 14.6097 -1.35066 -3.5014 -6.29147 -0.0595432 0.590073 -9.81452 0.400061 -6.69708 -3.10681 -1.45265 0.135988 13.6548 2.33167 0.609077 -8.08069 -9.53332 -0.95973 -11.5056 0.511738 -0.0591923 1.94242 0.253101 -0.0591924 1.94242 0.253103 -3.74452 -3.10987 -1.49535 -26.8152 8.71672 -11.324 -51.7006 40.5884 8.59993 13.3435 3.06047 -24.9327 -5.53619 -0.45137 -0.122028 1.59028e-015 6.36111e-015 -7.95139e-016 1.59028e-015 9.54167e-015 -2.38542e-015 34.6446 10.9023 15.6656 55.798 30.4244 -23.2444 3.95203 -25.0331 49.0652 8.95842 -0.91041 -22.1777 -3.97569e-016 9.54166e-015 -0 -7.95139e-016 9.54167e-015 3.97569e-016 0.476545 0.484146 -2.57005 
6.64391 95.582 -7.51179 -0.642581 -2.64901 1.61561 0.078542 0.949165 0.0642941 6.91294 -5.61704 8.19055 -1.36309 14.5627 -1.09738 -3.57698 -6.2944 -0.190078 0.59265 -9.81445 0.402438 -6.6818 -3.16552 -0.739251 0.28902 13.6756 2.12579 0.527406 -8.07579 -9.74962 -0.977818 -11.5005 0.517543 -0.00737042 1.89833 0.123569 -0.00737042 1.89833 0.12357 -3.93193 -3.19401 -1.33422 -26.5762 8.79497 -11.2407 -51.6029 40.8067 8.42174 13.22 2.8675 -24.9319 -5.11886 -0.410456 0.295708 1.59028e-015 3.18055e-015 -7.95139e-016 4.41391e-032 -3.18056e-015 7.95139e-016 34.3298 10.616 15.0702 51.0146 21.891 -20.9723 0.249343 -17.7095 57.3157 8.57607 -0.0555432 -20.4512 1.59028e-015 3.18055e-015 -0 3.18055e-015 0 -1.59028e-015 0.533505 0.563883 -2.47382 
6.5521 95.5767 -7.53054 -0.754558 -2.59287 1.48036 0.119555 0.907334 0.00345264 7.10901 -5.65576 8.53627 -1.40274 14.6828 -1.28688 -3.62554 -6.35257 -0.170301 0.623515 -9.80954 0.41486 -6.54828 -3.22497 -0.55044 0.298929 13.6526 2.10246 0.488634 -8.03854 -9.74716 -0.999791 -11.4906 0.526423 0.0731229 1.81465 0.000821319 0.0732595 1.81465 0.000863113 -3.94053 -3.14814 -1.29473 -26.4237 8.7151 -11.1949 -51.6071 40.5554 8.38891 13.2791 2.87669 -25.1002 -5.29819 -0.440069 -0.146076 1.59028e-015 -9.54166e-015 -3.18055e-015 1.59028e-015 -6.36111e-015 -1.59028e-015 33.9946 10.4017 14.8365 45.0653 9.88519 -18.8861 -3.00185 -9.40267 67.8912 6.01414 0.75624 -20.0326 -6.36111e-015 0 3.18055e-015 -3.18055e-015 3.18056e-015 -0 0.463633 0.63957 -2.42369 
6.49485 95.5698 -7.54432 -0.694136 -2.58337 1.53471 0.131206 0.883375 -0.0400205 7.05599 -5.62589 7.8372 -1.56573 14.5815 -0.88043 -3.6224 -6.3256 0.0998105 0.620926 -9.78821 0.447802 -6.60022 -3.28864 -0.595511 0.319616 13.8214 2.17074 0.460448 -8.14357 -9.78321 -1.03163 -11.4775 0.529498 0.0909436 1.76669 -0.0858894 0.0906043 1.7667 -0.0862464 -3.95071 -3.20358 -1.30392 -26.205 8.70015 -11.08 -51.76 40.3015 8.48162 13.6029 2.93332 -25.4775 -5.25645 -0.498413 -0.256047 -4.77083e-015 -6.36111e-015 7.95139e-016 -1.59028e-015 -6.36111e-015 1.59028e-015 33.4018 10.3042 14.7394 38.1638 -6.23882 -16.6404 -8.82774 1.59104 79.4645 1.44921 2.1793 -18.1092 -6.36111e-015 -3.18055e-015 -6.36111e-015 -6.36111e-015 -1.59028e-015 -6.36111e-015 0.443142 0.753574 -2.4284 
6.54847 95.5803 -7.32166 -0.385687 -2.99738 2.2837 0.0821651 0.946784 -0.137758 6.61958 -5.05682 9.38576 -0.804212 14.1538 -2.455 -3.79708 -6.10698 -0.641915 0.617824 -9.79979 0.427129 -6.99075 -2.61989 -2.01907 0.300227 13.8769 2.85751 0.433591 -8.43079 -9.63385 -1.04657 -11.4754 0.530731 -0.00606078 1.89356 -0.279106 -0.00584673 1.89357 -0.279107 -3.72453 -3.34067 -1.53827 -26.3004 8.74651 -10.9704 -50.9634 39.9548 7.72034 13.2046 3.01826 -25.5847 -4.8622 -0.507848 -0.211189 -6.36111e-015 -3.18055e-015 4.77083e-015 -4.77083e-015 0 4.77083e-015 32.3577 10.2586 14.5096 32.8618 -17.1083 -14.0194 -14.7874 4.8728 91.1747 -4.01816 5.33198 -15.8046 2.98177e-015 6.26172e-015 -0 3.57812e-015 9.24349e-015 3.18055e-015 0.391895 0.854919 -2.57848 
6.32111 95.5778 -7.5941 -0.674484 -2.44731 1.92748 0.0877897 0.81194 0.0419125 7.16317 -5.75841 8.98227 -1.17596 14.4913 -2.0011 -3.7897 -6.12211 -0.407681 0.616708 -9.80157 0.409535 -6.41929 -3.33189 -0.176872 0.448747 13.8921 1.9559 0.216623 -8.18601 -10.4674 -0.995103 -11.4747 0.473666 0.00869991 1.62389 0.0779294 0.00850176 1.62389 0.0779361 -2.97867 -3.32932 -1.91288 -26.7371 8.60045 -10.942 -50.7324 39.7626 7.68907 13.4816 3.35999 -25.8616 -4.967 -0.289983 -0.317993 -3.18055e-015 -3.18055e-015 -0 -3.18055e-015 -3.18056e-015 -1.59028e-015 30.5709 10.0205 14.2249 28.6512 -25.2671 -8.08664 -19.7588 3.91901 98.7165 -9.40157 6.57138 -13.7159 3.18055e-015 -8.74652e-015 6.36111e-015 3.18055e-015 -9.1441e-015 3.18055e-015 0.0886246 0.799416 -2.67407 
6.21406 95.5843 -7.54648 -0.558687 -2.3409 2.6978 7.98909e-005 0.761086 0.00491222 7.15801 -5.86601 8.75688 -1.10835 14.2956 -2.19058 -3.86508 -5.90746 -0.68396 0.615386 -9.81098 0.374104 -6.35766 -3.21208 -0.57776 0.454634 13.964 2.03703 0.0375757 -8.33463 -10.8653 -0.9395 -11.474 0.431112 -0.154773 1.52215 0.034115 -0.154781 1.52215 0.0343638 -2.16169 -3.15727 -2.33861 -27.2081 8.29368 -10.9986 -50.6003 39.7877 7.77914 13.5161 2.56979 -26.1204 -4.74912 -0.371019 -0.23491 -1.76556e-031 3.18055e-015 3.18055e-015 3.18055e-015 0 1.59028e-015 28.4127 9.60579 14.0998 26.2392 -33.0335 0.922243 -23.8448 2.33553 101.896 -14.4822 8.31662 -12.481 -3.18055e-015 4.96962e-015 -1.59028e-015 -3.18055e-015 3.57813e-015 1.19271e-015 -0.212454 0.606046 -2.80576 
6.09153 95.5955 -7.54287 -0.453069 -2.20287 3.2187 -0.0591983 0.689069 0.0108277 7.15695 -5.93144 8.79595 -1.04532 14.0506 -2.54261 -3.93249 -5.66526 -0.847771 0.627032 -9.82422 0.334094 -6.29607 -3.2028 -0.423001 0.555385 14.0547 1.96049 -0.209247 -8.42494 -11.4574 -0.869899 -11.4736 0.368054 -0.262757 1.37809 0.0382146 -0.262775 1.3781 0.0383707 -1.68385 -2.82953 -2.59987 -27.609 7.86353 -10.9706 -50.0127 39.0165 7.49044 13.2083 3.11255 -26.1646 -4.65813 -0.337383 -0.205264 3.18055e-015 -6.36111e-015 -1.59028e-015 -1.76556e-031 -6.36111e-015 -1.59028e-015 25.8774 9.03219 14.5634 26.4705 -40.0532 11.8884 -27.2382 1.23237 101.367 -17.8703 8.86656 -11.3232 -1.27222e-014 1.98785e-015 -1.98785e-015 -9.54166e-015 1.19271e-015 -4.17448e-015 -0.4578 0.534033 -2.88257 
5.93578 95.6054 -7.49687 -0.393435 -2.15731 3.82942 -0.0779907 0.639099 0.0209554 7.17773 -5.96056 8.72537 -0.960501 13.8769 -2.71959 -4.06245 -5.45772 -1.17321 0.617354 -9.84186 0.27473 -6.20157 -3.04339 -0.549081 0.585611 14.0795 1.85736 -0.422321 -8.51311 -11.8474 -0.80416 -11.4731 0.331581 -0.291749 1.27816 0.0395006 -0.291524 1.27815 0.0395176 -1.59803 -2.54696 -2.74278 -27.7567 7.5096 -10.8462 -49.4447 38.6636 6.98662 13.0574 3.68751 -25.7437 -4.80913 -0.31332 -0.332375 -8.82781e-032 -3.18055e-015 -1.59028e-015 3.18055e-015 -3.18056e-015 -1.59028e-015 22.9485 8.41737 15.4014 29.4906 -45.2911 23.405 -31.4412 0.883526 97.7159 -22.4953 7.90463 -8.93874 -3.18055e-015 -2.38542e-015 -3.97569e-016 -6.36111e-015 -3.18056e-015 -1.19271e-015 -0.5122 0.531442 -2.99298 
5.72217 95.6084 -7.45488 -0.416233 -2.02434 4.44254 -0.0935084 0.584465 0.0898728 7.29818 -6.15209 8.61546 -0.847679 13.8295 -2.90781 -4.2099 -5.32803 -1.51919 0.591553 -9.84891 0.225802 -5.98561 -2.96051 -0.626792 0.629397 14.0765 1.64248 -0.664331 -8.58382 -12.2493 -0.737229 -11.4726 0.289023 -0.316282 1.1687 0.177858 -0.31686 1.16869 0.1778 -1.39816 -2.43287 -3.01765 -27.9526 7.34318 -10.8808 -49.4822 39.425 7.28284 13.3759 3.09901 -25.7341 -5.02503 -0.368978 -0.26387 -3.18055e-015 -3.18055e-015 1.59028e-015 -3.18055e-015 0 -0 19.8665 7.98089 16.4221 33.6178 -49.1414 33.9576 -34.8961 1.80912 92.9304 -26.6185 7.6024 -7.47866 4.77083e-015 2.38542e-015 -3.97569e-016 4.77083e-015 1.59028e-015 -0 -0.732832 0.597952 -3.15696 
5.49747 95.6157 -7.3862 -0.393317 -1.91371 5.05473 -0.12901 0.536163 0.184949 7.38955 -6.25761 8.37224 -0.767138 13.6564 -3.20925 -4.35411 -5.15416 -1.68237 0.585107 -9.85106 0.220341 -5.78517 -2.84894 -0.8965 0.619105 14.0927 1.63822 -0.891552 -8.68644 -12.6821 -0.697166 -11.4719 0.243988 -0.382372 1.07173 0.368589 -0.383315 1.07172 0.368495 -1.24848 -2.31821 -3.21971 -27.9868 7.18695 -10.9275 -49.3269 39.557 7.36664 13.3991 2.93967 -25.7268 -4.96085 -0.371468 -0.280731 0 3.18055e-015 -0 3.18055e-015 3.18056e-015 -1.59028e-015 16.931 7.50655 17.4824 38.1105 -51.6283 43.2501 -37.9506 3.5409 87.4502 -28.8158 6.08276 -7.36084 1.59028e-015 0 -2.48481e-015 7.95139e-016 -7.95139e-016 9.93923e-017 -0.842258 0.538455 -3.28955 
5.24085 95.6221 -7.3173 -0.374919 -1.77176 5.65364 -0.150647 0.465626 0.322053 7.50339 -6.33807 8.27844 -0.697026 13.4147 -3.60158 -4.52308 -4.95221 -1.90258 0.577682 -9.8521 0.187764 -5.61862 -2.75797 -1.02421 0.727447 14.1225 1.35294 -1.11664 -8.80751 -13.0462 -0.697614 -11.4706 0.226385 -0.427525 0.930069 0.642712 -0.426255 0.930069 0.642727 -1.26814 -2.08948 -3.44239 -28.1853 6.99885 -11.0918 -49.0648 39.3613 7.60616 13.3901 2.89463 -25.8234 -5.06276 -0.421056 -0.277235 -3.18055e-015 0 1.59028e-015 -1.76556e-031 3.18056e-015 3.18055e-015 14.6076 6.91988 18.2848 41.1971 -52.5613 50.3523 -38.832 6.1915 81.3683 -31.566 4.76237 -6.3114 3.97569e-016 7.95139e-016 2.45996e-015 3.97569e-016 1.59028e-015 3.2054e-015 -0.756602 0.513277 -3.53652 
4.97381 95.6268 -7.24838 -0.381417 -1.63984 6.28555 -0.151643 0.409428 0.488087 7.64167 -6.46527 8.50102 -0.569081 13.2354 -4.22086 -4.6973 -4.74802 -2.30098 0.574375 -9.85854 0.177503 -5.42201 -2.65229 -1.16983 0.794199 14.1162 1.01721 -1.31881 -8.9167 -13.3944 -0.707385 -11.4589 0.203448 -0.426057 0.817041 0.974905 -0.426028 0.817043 0.974917 -1.10877 -2.38397 -3.80601 -28.8159 7.2604 -11.0261 -48.3573 38.2801 7.43891 13.0685 3.6546 -25.7468 -5.05167 -0.408805 -0.462948 -6.36111e-015 0 -3.18055e-015 -9.54166e-015 3.18056e-015 -0 12.1536 6.79383 18.8646 37.753 -50.1735 51.347 -38.7186 5.66901 72.3358 -32.9243 2.99127 -6.20082 -3.97569e-016 0 4.32357e-015 -3.97569e-016 0 2.88238e-015 -1.20724 1.12296 -3.72811 
4.73598 95.6343 -7.19736 -0.36371 -1.47789 6.92421 -0.151654 0.381053 0.51493 7.70681 -6.62191 8.92038 -0.366618 13.002 -4.87584 -4.87565 -4.50955 -2.69947 0.566791 -9.86348 0.141886 -5.28338 -2.62439 -1.19141 0.903559 14.1046 0.782991 -1.54754 -9.01194 -13.8372 -0.697458 -11.443 0.171391 -0.441958 0.760121 1.02974 -0.441959 0.760125 1.02975 -1.78047 -2.52926 -3.61126 -27.9573 7.38897 -10.7973 -48.5134 38.2545 7.4098 13.147 3.44908 -25.8801 -5.2194 -0.435546 -0.269051 0 0 -0 -0 -6.36111e-015 -0 10.1806 6.52 19.9953 32.4768 -46.8959 49.9607 -37.2757 4.28504 62.3989 -34.46 1.68835 -6.75256 7.95139e-016 -3.18055e-015 -7.45442e-016 3.97569e-016 -3.18056e-015 -1.68967e-015 -0.749606 1.12982 -3.82595 
4.47571 95.66 -7.19232 -0.407007 -1.30525 7.42731 -0.151903 0.348234 0.598588 7.86899 -6.79813 7.30975 -0.724065 12.7091 -3.87007 -4.97016 -4.24621 -2.60265 0.564171 -9.87854 0.136011 -5.08741 -2.60505 -0.930843 1.09979 13.9378 0.411312 -1.83567 -8.95591 -14.3626 -0.682081 -11.4339 0.13975 -0.414648 0.694311 1.19518 -0.415677 0.694312 1.19517 -2.18935 -2.99116 -3.59291 -27.7769 7.83685 -10.5431 -48.3982 38.1089 7.53512 13.1641 3.57531 -25.883 -5.25892 -0.501727 -0.367824 -8.82781e-032 3.18055e-015 1.59028e-015 -0 0 1.59028e-015 8.43264 6.62332 21.0167 26.37 -43.4289 48.3973 -35.4101 3.07827 51.9411 -34.3501 0.486201 -7.14947 1.98785e-016 1.59028e-015 -3.14328e-015 6.4605e-016 0 -1.70209e-015 -0.478803 1.53908 -3.9669 
